<mxfile host="app.diagrams.net" modified="2023-06-08T15:40:31.546Z" agent="Mozilla/5.0 (Windows NT 10.0; Win64; x64) AppleWebKit/537.36 (KHTML, like Gecko) Chrome/114.0.0.0 Safari/537.36" etag="4risU-ClxR4w8tojpDyE" version="21.3.5" type="device">
  <diagram name="Page-1" id="U72RxUkubcTSP7wyPlPS">
    <mxGraphModel dx="1050" dy="515" grid="1" gridSize="10" guides="1" tooltips="1" connect="1" arrows="1" fold="1" page="1" pageScale="1" pageWidth="850" pageHeight="1100" math="1" shadow="0">
      <root>
        <mxCell id="0" />
        <mxCell id="1" parent="0" />
        <mxCell id="bSAeQrTWmPWAfi3R3NMC-132" value="" style="verticalLabelPosition=bottom;verticalAlign=top;html=1;shape=mxgraph.basic.acute_triangle;dx=0.5;strokeColor=none;fillColor=#D6D6D6;rotation=-112.7;" vertex="1" parent="1">
          <mxGeometry x="538" y="22.5" width="108" height="315" as="geometry" />
        </mxCell>
        <mxCell id="bSAeQrTWmPWAfi3R3NMC-136" value="" style="verticalLabelPosition=bottom;verticalAlign=top;html=1;shape=mxgraph.basic.acute_triangle;dx=0.5;strokeColor=none;fillColor=#D6D6D6;rotation=-112.7;" vertex="1" parent="1">
          <mxGeometry x="564.59" y="57.7" width="135.9" height="207.74" as="geometry" />
        </mxCell>
        <mxCell id="bSAeQrTWmPWAfi3R3NMC-135" value="" style="verticalLabelPosition=bottom;verticalAlign=top;html=1;shape=mxgraph.basic.acute_triangle;dx=0.5;strokeColor=none;fillColor=#D6D6D6;rotation=-112.7;" vertex="1" parent="1">
          <mxGeometry x="574.08" y="37.45" width="172.88" height="213.48" as="geometry" />
        </mxCell>
        <mxCell id="bSAeQrTWmPWAfi3R3NMC-57" value="" style="curved=1;endArrow=none;html=1;rounded=0;strokeWidth=60;endFill=0;fillColor=#f5f5f5;strokeColor=#D6D6D6;" edge="1" parent="1">
          <mxGeometry width="50" height="50" relative="1" as="geometry">
            <mxPoint x="106" y="215" as="sourcePoint" />
            <mxPoint x="396" y="95" as="targetPoint" />
            <Array as="points">
              <mxPoint x="166" y="215" />
              <mxPoint x="226" y="175" />
              <mxPoint x="296" y="115" />
            </Array>
          </mxGeometry>
        </mxCell>
        <mxCell id="4" value="" style="rounded=0;whiteSpace=wrap;html=1;strokeColor=none;" parent="1" vertex="1">
          <mxGeometry x="366" y="40" width="70" height="95" as="geometry" />
        </mxCell>
        <mxCell id="6" value="" style="endArrow=classic;html=1;rounded=0;dashed=1;" parent="1" edge="1">
          <mxGeometry width="50" height="50" relative="1" as="geometry">
            <mxPoint x="86" y="245" as="sourcePoint" />
            <mxPoint x="86" y="55" as="targetPoint" />
          </mxGeometry>
        </mxCell>
        <mxCell id="7" value="" style="endArrow=classic;html=1;rounded=0;dashed=1;" parent="1" edge="1">
          <mxGeometry width="50" height="50" relative="1" as="geometry">
            <mxPoint x="86" y="245" as="sourcePoint" />
            <mxPoint x="396" y="245" as="targetPoint" />
          </mxGeometry>
        </mxCell>
        <mxCell id="8" value="\(x\)" style="text;html=1;strokeColor=none;fillColor=none;align=center;verticalAlign=middle;whiteSpace=wrap;rounded=0;fontSize=16;" parent="1" vertex="1">
          <mxGeometry x="359" y="245" width="60" height="30" as="geometry" />
        </mxCell>
        <mxCell id="9" value="\(y\)" style="text;html=1;strokeColor=none;fillColor=none;align=center;verticalAlign=middle;whiteSpace=wrap;rounded=0;fontSize=16;" parent="1" vertex="1">
          <mxGeometry x="40" y="43" width="60" height="30" as="geometry" />
        </mxCell>
        <mxCell id="10" value="" style="shape=image;html=1;verticalAlign=top;verticalLabelPosition=bottom;labelBackgroundColor=#ffffff;imageAspect=0;aspect=fixed;image=https://cdn0.iconfinder.com/data/icons/octicons/1024/x-128.png" parent="1" vertex="1">
          <mxGeometry x="116.35000000000002" y="199" width="10" height="10" as="geometry" />
        </mxCell>
        <mxCell id="11" value="" style="shape=image;html=1;verticalAlign=top;verticalLabelPosition=bottom;labelBackgroundColor=#ffffff;imageAspect=0;aspect=fixed;image=https://cdn0.iconfinder.com/data/icons/octicons/1024/x-128.png" parent="1" vertex="1">
          <mxGeometry x="196" y="185" width="10" height="10" as="geometry" />
        </mxCell>
        <mxCell id="12" value="" style="shape=image;html=1;verticalAlign=top;verticalLabelPosition=bottom;labelBackgroundColor=#ffffff;imageAspect=0;aspect=fixed;image=https://cdn0.iconfinder.com/data/icons/octicons/1024/x-128.png" parent="1" vertex="1">
          <mxGeometry x="166" y="215" width="10" height="10" as="geometry" />
        </mxCell>
        <mxCell id="13" value="" style="shape=image;html=1;verticalAlign=top;verticalLabelPosition=bottom;labelBackgroundColor=#ffffff;imageAspect=0;aspect=fixed;image=https://cdn0.iconfinder.com/data/icons/octicons/1024/x-128.png" parent="1" vertex="1">
          <mxGeometry x="226" y="155" width="10" height="10" as="geometry" />
        </mxCell>
        <mxCell id="14" value="" style="shape=image;html=1;verticalAlign=top;verticalLabelPosition=bottom;labelBackgroundColor=#ffffff;imageAspect=0;aspect=fixed;image=https://cdn0.iconfinder.com/data/icons/octicons/1024/x-128.png" parent="1" vertex="1">
          <mxGeometry x="256" y="155" width="10" height="10" as="geometry" />
        </mxCell>
        <mxCell id="15" value="" style="shape=image;html=1;verticalAlign=top;verticalLabelPosition=bottom;labelBackgroundColor=#ffffff;imageAspect=0;aspect=fixed;image=https://cdn0.iconfinder.com/data/icons/octicons/1024/x-128.png" parent="1" vertex="1">
          <mxGeometry x="290" y="97" width="10" height="10" as="geometry" />
        </mxCell>
        <mxCell id="16" value="" style="shape=image;html=1;verticalAlign=top;verticalLabelPosition=bottom;labelBackgroundColor=#ffffff;imageAspect=0;aspect=fixed;image=https://cdn0.iconfinder.com/data/icons/octicons/1024/x-128.png" parent="1" vertex="1">
          <mxGeometry x="299" y="112" width="10" height="10" as="geometry" />
        </mxCell>
        <mxCell id="17" value="" style="shape=image;html=1;verticalAlign=top;verticalLabelPosition=bottom;labelBackgroundColor=#ffffff;imageAspect=0;aspect=fixed;image=https://cdn0.iconfinder.com/data/icons/octicons/1024/x-128.png" parent="1" vertex="1">
          <mxGeometry x="326" y="105" width="10" height="10" as="geometry" />
        </mxCell>
        <mxCell id="18" value="" style="shape=image;html=1;verticalAlign=top;verticalLabelPosition=bottom;labelBackgroundColor=#ffffff;imageAspect=0;aspect=fixed;image=https://cdn0.iconfinder.com/data/icons/octicons/1024/x-128.png" parent="1" vertex="1">
          <mxGeometry x="276" y="135" width="10" height="10" as="geometry" />
        </mxCell>
        <mxCell id="19" value="" style="shape=image;html=1;verticalAlign=top;verticalLabelPosition=bottom;labelBackgroundColor=#ffffff;imageAspect=0;aspect=fixed;image=https://cdn0.iconfinder.com/data/icons/octicons/1024/x-128.png" parent="1" vertex="1">
          <mxGeometry x="204" y="173" width="10" height="10" as="geometry" />
        </mxCell>
        <mxCell id="20" value="" style="shape=image;html=1;verticalAlign=top;verticalLabelPosition=bottom;labelBackgroundColor=#ffffff;imageAspect=0;aspect=fixed;image=https://cdn0.iconfinder.com/data/icons/octicons/1024/x-128.png" parent="1" vertex="1">
          <mxGeometry x="174" y="195" width="10" height="10" as="geometry" />
        </mxCell>
        <mxCell id="21" value="" style="shape=image;html=1;verticalAlign=top;verticalLabelPosition=bottom;labelBackgroundColor=#ffffff;imageAspect=0;aspect=fixed;image=https://cdn0.iconfinder.com/data/icons/octicons/1024/x-128.png" parent="1" vertex="1">
          <mxGeometry x="354" y="113" width="10" height="10" as="geometry" />
        </mxCell>
        <mxCell id="22" value="" style="endArrow=none;html=1;rounded=0;strokeWidth=2;" parent="1" edge="1">
          <mxGeometry width="50" height="50" relative="1" as="geometry">
            <mxPoint x="86" y="225" as="sourcePoint" />
            <mxPoint x="397" y="97" as="targetPoint" />
          </mxGeometry>
        </mxCell>
        <mxCell id="bSAeQrTWmPWAfi3R3NMC-44" value="" style="shape=image;html=1;verticalAlign=top;verticalLabelPosition=bottom;labelBackgroundColor=#ffffff;imageAspect=0;aspect=fixed;image=https://cdn0.iconfinder.com/data/icons/octicons/1024/x-128.png" vertex="1" parent="1">
          <mxGeometry x="186" y="205" width="10" height="10" as="geometry" />
        </mxCell>
        <mxCell id="bSAeQrTWmPWAfi3R3NMC-45" value="" style="shape=image;html=1;verticalAlign=top;verticalLabelPosition=bottom;labelBackgroundColor=#ffffff;imageAspect=0;aspect=fixed;image=https://cdn0.iconfinder.com/data/icons/octicons/1024/x-128.png" vertex="1" parent="1">
          <mxGeometry x="216" y="175" width="10" height="10" as="geometry" />
        </mxCell>
        <mxCell id="bSAeQrTWmPWAfi3R3NMC-46" value="" style="shape=image;html=1;verticalAlign=top;verticalLabelPosition=bottom;labelBackgroundColor=#ffffff;imageAspect=0;aspect=fixed;image=https://cdn0.iconfinder.com/data/icons/octicons/1024/x-128.png" vertex="1" parent="1">
          <mxGeometry x="196" y="196" width="10" height="10" as="geometry" />
        </mxCell>
        <mxCell id="bSAeQrTWmPWAfi3R3NMC-47" value="" style="shape=image;html=1;verticalAlign=top;verticalLabelPosition=bottom;labelBackgroundColor=#ffffff;imageAspect=0;aspect=fixed;image=https://cdn0.iconfinder.com/data/icons/octicons/1024/x-128.png" vertex="1" parent="1">
          <mxGeometry x="146" y="205" width="10" height="10" as="geometry" />
        </mxCell>
        <mxCell id="bSAeQrTWmPWAfi3R3NMC-48" value="" style="shape=image;html=1;verticalAlign=top;verticalLabelPosition=bottom;labelBackgroundColor=#ffffff;imageAspect=0;aspect=fixed;image=https://cdn0.iconfinder.com/data/icons/octicons/1024/x-128.png" vertex="1" parent="1">
          <mxGeometry x="278" y="113" width="10" height="10" as="geometry" />
        </mxCell>
        <mxCell id="bSAeQrTWmPWAfi3R3NMC-49" value="" style="shape=image;html=1;verticalAlign=top;verticalLabelPosition=bottom;labelBackgroundColor=#ffffff;imageAspect=0;aspect=fixed;image=https://cdn0.iconfinder.com/data/icons/octicons/1024/x-128.png" vertex="1" parent="1">
          <mxGeometry x="266" y="125" width="10" height="10" as="geometry" />
        </mxCell>
        <mxCell id="bSAeQrTWmPWAfi3R3NMC-50" value="" style="shape=image;html=1;verticalAlign=top;verticalLabelPosition=bottom;labelBackgroundColor=#ffffff;imageAspect=0;aspect=fixed;image=https://cdn0.iconfinder.com/data/icons/octicons/1024/x-128.png" vertex="1" parent="1">
          <mxGeometry x="256" y="135" width="10" height="10" as="geometry" />
        </mxCell>
        <mxCell id="bSAeQrTWmPWAfi3R3NMC-51" value="" style="shape=image;html=1;verticalAlign=top;verticalLabelPosition=bottom;labelBackgroundColor=#ffffff;imageAspect=0;aspect=fixed;image=https://cdn0.iconfinder.com/data/icons/octicons/1024/x-128.png" vertex="1" parent="1">
          <mxGeometry x="336" y="125" width="10" height="10" as="geometry" />
        </mxCell>
        <mxCell id="bSAeQrTWmPWAfi3R3NMC-52" value="" style="shape=image;html=1;verticalAlign=top;verticalLabelPosition=bottom;labelBackgroundColor=#ffffff;imageAspect=0;aspect=fixed;image=https://cdn0.iconfinder.com/data/icons/octicons/1024/x-128.png" vertex="1" parent="1">
          <mxGeometry x="313" y="118" width="10" height="10" as="geometry" />
        </mxCell>
        <mxCell id="bSAeQrTWmPWAfi3R3NMC-53" value="" style="shape=image;html=1;verticalAlign=top;verticalLabelPosition=bottom;labelBackgroundColor=#ffffff;imageAspect=0;aspect=fixed;image=https://cdn0.iconfinder.com/data/icons/octicons/1024/x-128.png" vertex="1" parent="1">
          <mxGeometry x="316" y="111" width="10" height="10" as="geometry" />
        </mxCell>
        <mxCell id="bSAeQrTWmPWAfi3R3NMC-54" value="" style="shape=image;html=1;verticalAlign=top;verticalLabelPosition=bottom;labelBackgroundColor=#ffffff;imageAspect=0;aspect=fixed;image=https://cdn0.iconfinder.com/data/icons/octicons/1024/x-128.png" vertex="1" parent="1">
          <mxGeometry x="203" y="206" width="10" height="10" as="geometry" />
        </mxCell>
        <mxCell id="bSAeQrTWmPWAfi3R3NMC-55" value="" style="shape=image;html=1;verticalAlign=top;verticalLabelPosition=bottom;labelBackgroundColor=#ffffff;imageAspect=0;aspect=fixed;image=https://cdn0.iconfinder.com/data/icons/octicons/1024/x-128.png" vertex="1" parent="1">
          <mxGeometry x="126" y="185" width="10" height="10" as="geometry" />
        </mxCell>
        <mxCell id="bSAeQrTWmPWAfi3R3NMC-56" value="" style="shape=image;html=1;verticalAlign=top;verticalLabelPosition=bottom;labelBackgroundColor=#ffffff;imageAspect=0;aspect=fixed;image=https://cdn0.iconfinder.com/data/icons/octicons/1024/x-128.png" vertex="1" parent="1">
          <mxGeometry x="316" y="95" width="10" height="10" as="geometry" />
        </mxCell>
        <mxCell id="bSAeQrTWmPWAfi3R3NMC-93" value="" style="rounded=0;whiteSpace=wrap;html=1;strokeColor=none;" vertex="1" parent="1">
          <mxGeometry x="435" y="192" width="70" height="95" as="geometry" />
        </mxCell>
        <mxCell id="bSAeQrTWmPWAfi3R3NMC-94" value="" style="endArrow=classic;html=1;rounded=0;dashed=1;" edge="1" parent="1">
          <mxGeometry width="50" height="50" relative="1" as="geometry">
            <mxPoint x="486" y="245" as="sourcePoint" />
            <mxPoint x="486" y="55" as="targetPoint" />
          </mxGeometry>
        </mxCell>
        <mxCell id="bSAeQrTWmPWAfi3R3NMC-95" value="" style="endArrow=classic;html=1;rounded=0;dashed=1;" edge="1" parent="1">
          <mxGeometry width="50" height="50" relative="1" as="geometry">
            <mxPoint x="486" y="245" as="sourcePoint" />
            <mxPoint x="796" y="245" as="targetPoint" />
          </mxGeometry>
        </mxCell>
        <mxCell id="bSAeQrTWmPWAfi3R3NMC-96" value="\(x\)" style="text;html=1;strokeColor=none;fillColor=none;align=center;verticalAlign=middle;whiteSpace=wrap;rounded=0;fontSize=16;" vertex="1" parent="1">
          <mxGeometry x="759" y="245" width="60" height="30" as="geometry" />
        </mxCell>
        <mxCell id="bSAeQrTWmPWAfi3R3NMC-97" value="\(y\)" style="text;html=1;strokeColor=none;fillColor=none;align=center;verticalAlign=middle;whiteSpace=wrap;rounded=0;fontSize=16;" vertex="1" parent="1">
          <mxGeometry x="440" y="43" width="60" height="30" as="geometry" />
        </mxCell>
        <mxCell id="bSAeQrTWmPWAfi3R3NMC-98" value="" style="shape=image;html=1;verticalAlign=top;verticalLabelPosition=bottom;labelBackgroundColor=#ffffff;imageAspect=0;aspect=fixed;image=https://cdn0.iconfinder.com/data/icons/octicons/1024/x-128.png" vertex="1" parent="1">
          <mxGeometry x="516.35" y="199" width="10" height="10" as="geometry" />
        </mxCell>
        <mxCell id="bSAeQrTWmPWAfi3R3NMC-99" value="" style="shape=image;html=1;verticalAlign=top;verticalLabelPosition=bottom;labelBackgroundColor=#ffffff;imageAspect=0;aspect=fixed;image=https://cdn0.iconfinder.com/data/icons/octicons/1024/x-128.png" vertex="1" parent="1">
          <mxGeometry x="596" y="185" width="10" height="10" as="geometry" />
        </mxCell>
        <mxCell id="bSAeQrTWmPWAfi3R3NMC-100" value="" style="shape=image;html=1;verticalAlign=top;verticalLabelPosition=bottom;labelBackgroundColor=#ffffff;imageAspect=0;aspect=fixed;image=https://cdn0.iconfinder.com/data/icons/octicons/1024/x-128.png" vertex="1" parent="1">
          <mxGeometry x="528" y="209" width="10" height="10" as="geometry" />
        </mxCell>
        <mxCell id="bSAeQrTWmPWAfi3R3NMC-101" value="" style="shape=image;html=1;verticalAlign=top;verticalLabelPosition=bottom;labelBackgroundColor=#ffffff;imageAspect=0;aspect=fixed;image=https://cdn0.iconfinder.com/data/icons/octicons/1024/x-128.png" vertex="1" parent="1">
          <mxGeometry x="626" y="155" width="10" height="10" as="geometry" />
        </mxCell>
        <mxCell id="bSAeQrTWmPWAfi3R3NMC-102" value="" style="shape=image;html=1;verticalAlign=top;verticalLabelPosition=bottom;labelBackgroundColor=#ffffff;imageAspect=0;aspect=fixed;image=https://cdn0.iconfinder.com/data/icons/octicons/1024/x-128.png" vertex="1" parent="1">
          <mxGeometry x="656" y="155" width="10" height="10" as="geometry" />
        </mxCell>
        <mxCell id="bSAeQrTWmPWAfi3R3NMC-103" value="" style="shape=image;html=1;verticalAlign=top;verticalLabelPosition=bottom;labelBackgroundColor=#ffffff;imageAspect=0;aspect=fixed;image=https://cdn0.iconfinder.com/data/icons/octicons/1024/x-128.png" vertex="1" parent="1">
          <mxGeometry x="680" y="107" width="10" height="10" as="geometry" />
        </mxCell>
        <mxCell id="bSAeQrTWmPWAfi3R3NMC-104" value="" style="shape=image;html=1;verticalAlign=top;verticalLabelPosition=bottom;labelBackgroundColor=#ffffff;imageAspect=0;aspect=fixed;image=https://cdn0.iconfinder.com/data/icons/octicons/1024/x-128.png" vertex="1" parent="1">
          <mxGeometry x="699" y="112" width="10" height="10" as="geometry" />
        </mxCell>
        <mxCell id="bSAeQrTWmPWAfi3R3NMC-105" value="" style="shape=image;html=1;verticalAlign=top;verticalLabelPosition=bottom;labelBackgroundColor=#ffffff;imageAspect=0;aspect=fixed;image=https://cdn0.iconfinder.com/data/icons/octicons/1024/x-128.png" vertex="1" parent="1">
          <mxGeometry x="736" y="146" width="10" height="10" as="geometry" />
        </mxCell>
        <mxCell id="bSAeQrTWmPWAfi3R3NMC-106" value="" style="shape=image;html=1;verticalAlign=top;verticalLabelPosition=bottom;labelBackgroundColor=#ffffff;imageAspect=0;aspect=fixed;image=https://cdn0.iconfinder.com/data/icons/octicons/1024/x-128.png" vertex="1" parent="1">
          <mxGeometry x="686" y="165" width="10" height="10" as="geometry" />
        </mxCell>
        <mxCell id="bSAeQrTWmPWAfi3R3NMC-107" value="" style="shape=image;html=1;verticalAlign=top;verticalLabelPosition=bottom;labelBackgroundColor=#ffffff;imageAspect=0;aspect=fixed;image=https://cdn0.iconfinder.com/data/icons/octicons/1024/x-128.png" vertex="1" parent="1">
          <mxGeometry x="604" y="173" width="10" height="10" as="geometry" />
        </mxCell>
        <mxCell id="bSAeQrTWmPWAfi3R3NMC-108" value="" style="shape=image;html=1;verticalAlign=top;verticalLabelPosition=bottom;labelBackgroundColor=#ffffff;imageAspect=0;aspect=fixed;image=https://cdn0.iconfinder.com/data/icons/octicons/1024/x-128.png" vertex="1" parent="1">
          <mxGeometry x="572" y="192" width="10" height="10" as="geometry" />
        </mxCell>
        <mxCell id="bSAeQrTWmPWAfi3R3NMC-109" value="" style="shape=image;html=1;verticalAlign=top;verticalLabelPosition=bottom;labelBackgroundColor=#ffffff;imageAspect=0;aspect=fixed;image=https://cdn0.iconfinder.com/data/icons/octicons/1024/x-128.png" vertex="1" parent="1">
          <mxGeometry x="754" y="113" width="10" height="10" as="geometry" />
        </mxCell>
        <mxCell id="bSAeQrTWmPWAfi3R3NMC-110" value="" style="endArrow=none;html=1;rounded=0;strokeWidth=2;" edge="1" parent="1">
          <mxGeometry width="50" height="50" relative="1" as="geometry">
            <mxPoint x="486" y="225" as="sourcePoint" />
            <mxPoint x="797" y="97" as="targetPoint" />
          </mxGeometry>
        </mxCell>
        <mxCell id="bSAeQrTWmPWAfi3R3NMC-111" value="" style="shape=image;html=1;verticalAlign=top;verticalLabelPosition=bottom;labelBackgroundColor=#ffffff;imageAspect=0;aspect=fixed;image=https://cdn0.iconfinder.com/data/icons/octicons/1024/x-128.png" vertex="1" parent="1">
          <mxGeometry x="586" y="160" width="10" height="10" as="geometry" />
        </mxCell>
        <mxCell id="bSAeQrTWmPWAfi3R3NMC-112" value="" style="shape=image;html=1;verticalAlign=top;verticalLabelPosition=bottom;labelBackgroundColor=#ffffff;imageAspect=0;aspect=fixed;image=https://cdn0.iconfinder.com/data/icons/octicons/1024/x-128.png" vertex="1" parent="1">
          <mxGeometry x="616" y="175" width="10" height="10" as="geometry" />
        </mxCell>
        <mxCell id="bSAeQrTWmPWAfi3R3NMC-113" value="" style="shape=image;html=1;verticalAlign=top;verticalLabelPosition=bottom;labelBackgroundColor=#ffffff;imageAspect=0;aspect=fixed;image=https://cdn0.iconfinder.com/data/icons/octicons/1024/x-128.png" vertex="1" parent="1">
          <mxGeometry x="646" y="176" width="10" height="10" as="geometry" />
        </mxCell>
        <mxCell id="bSAeQrTWmPWAfi3R3NMC-114" value="" style="shape=image;html=1;verticalAlign=top;verticalLabelPosition=bottom;labelBackgroundColor=#ffffff;imageAspect=0;aspect=fixed;image=https://cdn0.iconfinder.com/data/icons/octicons/1024/x-128.png" vertex="1" parent="1">
          <mxGeometry x="546" y="205" width="10" height="10" as="geometry" />
        </mxCell>
        <mxCell id="bSAeQrTWmPWAfi3R3NMC-115" value="" style="shape=image;html=1;verticalAlign=top;verticalLabelPosition=bottom;labelBackgroundColor=#ffffff;imageAspect=0;aspect=fixed;image=https://cdn0.iconfinder.com/data/icons/octicons/1024/x-128.png" vertex="1" parent="1">
          <mxGeometry x="678" y="83" width="10" height="10" as="geometry" />
        </mxCell>
        <mxCell id="bSAeQrTWmPWAfi3R3NMC-116" value="" style="shape=image;html=1;verticalAlign=top;verticalLabelPosition=bottom;labelBackgroundColor=#ffffff;imageAspect=0;aspect=fixed;image=https://cdn0.iconfinder.com/data/icons/octicons/1024/x-128.png" vertex="1" parent="1">
          <mxGeometry x="678" y="124" width="10" height="10" as="geometry" />
        </mxCell>
        <mxCell id="bSAeQrTWmPWAfi3R3NMC-117" value="" style="shape=image;html=1;verticalAlign=top;verticalLabelPosition=bottom;labelBackgroundColor=#ffffff;imageAspect=0;aspect=fixed;image=https://cdn0.iconfinder.com/data/icons/octicons/1024/x-128.png" vertex="1" parent="1">
          <mxGeometry x="656" y="135" width="10" height="10" as="geometry" />
        </mxCell>
        <mxCell id="bSAeQrTWmPWAfi3R3NMC-118" value="" style="shape=image;html=1;verticalAlign=top;verticalLabelPosition=bottom;labelBackgroundColor=#ffffff;imageAspect=0;aspect=fixed;image=https://cdn0.iconfinder.com/data/icons/octicons/1024/x-128.png" vertex="1" parent="1">
          <mxGeometry x="736" y="125" width="10" height="10" as="geometry" />
        </mxCell>
        <mxCell id="bSAeQrTWmPWAfi3R3NMC-119" value="" style="shape=image;html=1;verticalAlign=top;verticalLabelPosition=bottom;labelBackgroundColor=#ffffff;imageAspect=0;aspect=fixed;image=https://cdn0.iconfinder.com/data/icons/octicons/1024/x-128.png" vertex="1" parent="1">
          <mxGeometry x="713" y="118" width="10" height="10" as="geometry" />
        </mxCell>
        <mxCell id="bSAeQrTWmPWAfi3R3NMC-120" value="" style="shape=image;html=1;verticalAlign=top;verticalLabelPosition=bottom;labelBackgroundColor=#ffffff;imageAspect=0;aspect=fixed;image=https://cdn0.iconfinder.com/data/icons/octicons/1024/x-128.png" vertex="1" parent="1">
          <mxGeometry x="736" y="171" width="10" height="10" as="geometry" />
        </mxCell>
        <mxCell id="bSAeQrTWmPWAfi3R3NMC-121" value="" style="shape=image;html=1;verticalAlign=top;verticalLabelPosition=bottom;labelBackgroundColor=#ffffff;imageAspect=0;aspect=fixed;image=https://cdn0.iconfinder.com/data/icons/octicons/1024/x-128.png" vertex="1" parent="1">
          <mxGeometry x="706" y="154" width="10" height="10" as="geometry" />
        </mxCell>
        <mxCell id="bSAeQrTWmPWAfi3R3NMC-122" value="" style="shape=image;html=1;verticalAlign=top;verticalLabelPosition=bottom;labelBackgroundColor=#ffffff;imageAspect=0;aspect=fixed;image=https://cdn0.iconfinder.com/data/icons/octicons/1024/x-128.png" vertex="1" parent="1">
          <mxGeometry x="546" y="185" width="10" height="10" as="geometry" />
        </mxCell>
        <mxCell id="bSAeQrTWmPWAfi3R3NMC-123" value="" style="shape=image;html=1;verticalAlign=top;verticalLabelPosition=bottom;labelBackgroundColor=#ffffff;imageAspect=0;aspect=fixed;image=https://cdn0.iconfinder.com/data/icons/octicons/1024/x-128.png" vertex="1" parent="1">
          <mxGeometry x="716" y="95" width="10" height="10" as="geometry" />
        </mxCell>
        <mxCell id="bSAeQrTWmPWAfi3R3NMC-125" value="" style="shape=image;html=1;verticalAlign=top;verticalLabelPosition=bottom;labelBackgroundColor=#ffffff;imageAspect=0;aspect=fixed;image=https://cdn0.iconfinder.com/data/icons/octicons/1024/x-128.png" vertex="1" parent="1">
          <mxGeometry x="690" y="148" width="10" height="10" as="geometry" />
        </mxCell>
        <mxCell id="bSAeQrTWmPWAfi3R3NMC-126" value="" style="shape=image;html=1;verticalAlign=top;verticalLabelPosition=bottom;labelBackgroundColor=#ffffff;imageAspect=0;aspect=fixed;image=https://cdn0.iconfinder.com/data/icons/octicons/1024/x-128.png" vertex="1" parent="1">
          <mxGeometry x="722" y="172" width="10" height="10" as="geometry" />
        </mxCell>
        <mxCell id="bSAeQrTWmPWAfi3R3NMC-127" value="" style="shape=image;html=1;verticalAlign=top;verticalLabelPosition=bottom;labelBackgroundColor=#ffffff;imageAspect=0;aspect=fixed;image=https://cdn0.iconfinder.com/data/icons/octicons/1024/x-128.png" vertex="1" parent="1">
          <mxGeometry x="671" y="178" width="10" height="10" as="geometry" />
        </mxCell>
        <mxCell id="bSAeQrTWmPWAfi3R3NMC-128" value="" style="shape=image;html=1;verticalAlign=top;verticalLabelPosition=bottom;labelBackgroundColor=#ffffff;imageAspect=0;aspect=fixed;image=https://cdn0.iconfinder.com/data/icons/octicons/1024/x-128.png" vertex="1" parent="1">
          <mxGeometry x="661" y="108" width="10" height="10" as="geometry" />
        </mxCell>
        <mxCell id="bSAeQrTWmPWAfi3R3NMC-129" value="" style="shape=image;html=1;verticalAlign=top;verticalLabelPosition=bottom;labelBackgroundColor=#ffffff;imageAspect=0;aspect=fixed;image=https://cdn0.iconfinder.com/data/icons/octicons/1024/x-128.png" vertex="1" parent="1">
          <mxGeometry x="631" y="128" width="10" height="10" as="geometry" />
        </mxCell>
        <mxCell id="bSAeQrTWmPWAfi3R3NMC-130" value="" style="shape=image;html=1;verticalAlign=top;verticalLabelPosition=bottom;labelBackgroundColor=#ffffff;imageAspect=0;aspect=fixed;image=https://cdn0.iconfinder.com/data/icons/octicons/1024/x-128.png" vertex="1" parent="1">
          <mxGeometry x="701" y="48" width="10" height="10" as="geometry" />
        </mxCell>
        <mxCell id="bSAeQrTWmPWAfi3R3NMC-131" value="" style="shape=image;html=1;verticalAlign=top;verticalLabelPosition=bottom;labelBackgroundColor=#ffffff;imageAspect=0;aspect=fixed;image=https://cdn0.iconfinder.com/data/icons/octicons/1024/x-128.png" vertex="1" parent="1">
          <mxGeometry x="766" y="176" width="10" height="10" as="geometry" />
        </mxCell>
        <mxCell id="bSAeQrTWmPWAfi3R3NMC-138" value="Non zero conditional mean of errors" style="text;html=1;strokeColor=none;fillColor=none;align=center;verticalAlign=middle;whiteSpace=wrap;rounded=0;fontSize=13;" vertex="1" parent="1">
          <mxGeometry x="106" y="253" width="260" height="30" as="geometry" />
        </mxCell>
        <mxCell id="bSAeQrTWmPWAfi3R3NMC-139" value="Heteroscedasticity as a funnel shape" style="text;html=1;strokeColor=none;fillColor=none;align=center;verticalAlign=middle;whiteSpace=wrap;rounded=0;fontSize=13;" vertex="1" parent="1">
          <mxGeometry x="521" y="253" width="260" height="30" as="geometry" />
        </mxCell>
      </root>
    </mxGraphModel>
  </diagram>
</mxfile>
